<svg width="27" height="26" viewBox="0 0 27 26" fill="none" xmlns="http://www.w3.org/2000/svg">
<g clip-path="url(#clip0_343_114)">
<path d="M0 16.0508C0.222957 15.5776 0.593848 15.4297 1.0926 15.446C1.97016 15.4743 2.84878 15.4536 3.75117 15.4536C4.18018 17.1523 4.8052 18.766 5.6759 20.339H5.36259C3.93873 20.339 2.5154 20.3238 1.09207 20.3472C0.594376 20.3554 0.221372 20.2177 0 19.7418C0 19.5971 0 19.4525 0 19.3078C0.258355 18.8928 0.511956 18.4745 0.778237 18.0649C0.859072 17.9409 0.858543 17.8523 0.778237 17.7283C0.511956 17.3187 0.258884 16.9004 0.000528334 16.4854C0.000528334 16.3408 0.000528334 16.1961 0.000528334 16.0514L0 16.0508Z" fill="#A8A8A8"/>
<path d="M13.5021 15.4535C10.3918 15.4535 7.28149 15.4535 4.17118 15.4535C3.51447 15.4535 3.21754 15.1517 3.21701 14.4832C3.21701 13.4791 3.21543 12.4751 3.21701 11.471C3.21807 10.9086 3.5356 10.5763 4.08507 10.5763C10.3495 10.5747 16.6145 10.5747 22.879 10.5763C23.4771 10.5763 23.7803 10.8988 23.7808 11.5189C23.7819 12.523 23.7824 13.527 23.7808 14.5311C23.7798 15.1294 23.4654 15.4535 22.8858 15.4535C19.7581 15.4546 16.6298 15.4535 13.5021 15.4535Z" fill="#A8A8A8"/>
<path d="M22.1842 8.92557H19.0353V8.64001C19.0353 7.88017 19.0364 7.12033 19.0353 6.35994C19.0343 5.88837 18.8752 5.64198 18.4499 5.46684C16.9352 4.84189 15.4189 4.22183 13.9052 3.59361C13.6278 3.4783 13.3674 3.47939 13.09 3.5947C11.5768 4.22292 10.061 4.84406 8.54578 5.46684C8.12839 5.63872 7.96355 5.88783 7.96249 6.36212C7.96091 7.21062 7.96249 8.05912 7.96249 8.92285H4.79883V8.6721C4.79883 7.17907 4.79883 5.68658 4.79883 4.19355C4.79883 3.66758 4.94835 3.43969 5.42226 3.24442C7.97148 2.19522 10.5217 1.14765 13.0694 0.0930062C13.3552 -0.0250223 13.6199 -0.0342688 13.9084 0.0848476C16.4798 1.14874 19.0543 2.20501 21.6273 3.26346C21.9781 3.4076 22.1953 3.66051 22.1964 4.06083C22.2006 5.64416 22.1985 7.22748 22.1974 8.8108C22.1974 8.84507 22.1895 8.87933 22.1837 8.92502L22.1842 8.92557Z" fill="#A8A8A8"/>
<path d="M21.1154 17.082C20.7863 17.8022 20.5084 18.4848 20.1713 19.1347C18.7411 21.8891 16.7297 24.0887 14.1684 25.7656C13.6992 26.0729 13.3151 26.0816 12.8407 25.7704C9.70501 23.7134 7.43106 20.9242 6.03203 17.3785C5.99927 17.2958 5.97232 17.2109 5.93323 17.1011C6.00667 17.0934 6.06214 17.0831 6.11762 17.0831C7.13677 17.082 8.15593 17.0869 9.17509 17.0777C9.34468 17.076 9.41918 17.1446 9.48997 17.2893C10.3332 19.014 11.4548 20.5174 12.8856 21.7711C13.3241 22.1551 13.6839 22.1529 14.1266 21.7629C15.5331 20.5239 16.6436 19.0445 17.4789 17.3469C17.5819 17.138 17.6945 17.0728 17.9185 17.076C18.9546 17.0902 19.9906 17.0826 21.116 17.0826L21.1154 17.082Z" fill="#A8A8A8"/>
<path d="M17.4535 8.92935H9.54437C9.54437 8.49585 9.54225 8.06562 9.54542 7.63593C9.54754 7.36615 9.46617 7.03328 9.58928 6.84454C9.71185 6.65635 10.041 6.60685 10.2835 6.50677C11.2831 6.09231 12.2827 5.67677 13.2876 5.2759C13.4107 5.22695 13.5835 5.22206 13.705 5.27047C14.8805 5.74204 16.0492 6.23373 17.2237 6.70911C17.3965 6.77873 17.4636 6.86249 17.4593 7.05993C17.4456 7.67346 17.4541 8.28699 17.4541 8.92935H17.4535Z" fill="#A8A8A8"/>
<path d="M21.3452 20.339C21.6052 19.8038 21.8846 19.3208 22.0817 18.8041C22.4753 17.7717 22.8293 16.7231 23.1838 15.6755C23.2398 15.5096 23.2948 15.4476 23.4681 15.4493C24.3551 15.458 25.2427 15.4552 26.1303 15.4525C26.4658 15.4514 26.73 15.582 26.8948 15.8871C27.0607 16.1944 27.0222 16.4957 26.8372 16.7829C26.6333 17.0989 26.4331 17.4182 26.2207 17.7282C26.1356 17.8517 26.1388 17.9442 26.2223 18.0665C26.4299 18.369 26.6238 18.6817 26.8251 18.989C27.0174 19.2827 27.0665 19.59 26.8938 19.9077C26.7284 20.2117 26.4637 20.3406 26.1282 20.3401C24.5469 20.3379 22.9656 20.339 21.3457 20.339H21.3452Z" fill="#A8A8A8"/>
<path d="M11.1796 17.0957H15.8162C15.188 18.2401 14.4373 19.2485 13.5032 20.1481C12.5659 19.2659 11.822 18.245 11.1801 17.0957H11.1796Z" fill="#A8A8A8"/>
</g>
<defs>
<clipPath id="clip0_343_114">
<rect width="27" height="26" fill="white"/>
</clipPath>
</defs>
</svg>
