<svg width="28" height="25" viewBox="0 0 28 25" fill="none" xmlns="http://www.w3.org/2000/svg">
<g clip-path="url(#clip0_343_122)">
<path d="M28 12.4466V22.808C27.9344 23.0133 27.887 23.227 27.8002 23.4217C27.3241 24.4924 26.514 25 25.3874 24.9992C17.796 24.9954 10.2047 24.9969 2.61406 24.9969C2.52292 24.9969 2.43177 24.9954 2.34062 24.9908C1.30521 24.9435 0.400313 24.1994 0.105 23.1545C0.0721875 23.0378 0.035 22.9233 0 22.8073C0 19.3537 0 15.8994 0 12.4458C0.04375 12.4565 0.0889583 12.4626 0.131979 12.4779C3.09823 13.509 6.14542 14.131 9.25313 14.434C11.4129 14.6446 13.5785 14.7026 15.7478 14.6271C18.7396 14.5233 21.7022 14.173 24.6137 13.4342C25.752 13.1457 26.872 12.7778 28 12.4458V12.4466ZM13.9978 17.248C13.343 17.248 12.6882 17.2457 12.0327 17.248C11.488 17.2503 11.1081 17.612 11.1147 18.1158C11.1212 18.608 11.4997 18.9683 12.0225 18.969C13.3416 18.9713 14.6606 18.9713 15.9797 18.969C16.5018 18.9683 16.8802 18.6042 16.8839 18.1119C16.8875 17.6174 16.5127 17.2518 15.9899 17.2487C15.3256 17.2449 14.6621 17.248 13.9978 17.248Z" fill="#A8A8A8"/>
<path d="M28 7.40853V10.6141C27.9737 10.6217 27.9468 10.627 27.9212 10.6362C24.4271 11.9276 20.817 12.5999 17.1281 12.835C14.9158 12.9762 12.7035 12.9663 10.4905 12.8037C8.55239 12.661 6.6325 12.3969 4.7301 11.9871C3.12375 11.6413 1.55094 11.1697 0 10.6148C0 9.54631 0 8.47704 0 7.40853C0.0123958 7.38335 0.030625 7.35893 0.0371875 7.33221C0.379167 5.89736 1.25635 5.17688 2.66365 5.17612C4.25833 5.17459 5.85229 5.17307 7.44698 5.17078C7.43604 5.32113 7.4149 5.47148 7.4149 5.62184C7.41198 6.6041 7.4076 7.58636 7.41635 8.56863C7.42146 9.15554 7.8174 9.53181 8.3424 9.4738C8.7726 9.42649 9.0599 9.05098 9.06281 8.51825C9.0701 7.40319 9.07302 6.28737 9.07812 5.1723C12.3601 5.1723 15.6414 5.1723 18.9233 5.1723C18.9277 5.27686 18.9365 5.38142 18.9372 5.48599C18.9379 6.48733 18.9401 7.48867 18.9372 8.49002C18.9365 8.76706 18.989 9.02045 19.1807 9.225C19.409 9.46846 19.7663 9.55318 20.0623 9.42343C20.4101 9.27155 20.5858 8.98916 20.5866 8.59763C20.5902 7.51004 20.5887 6.42322 20.5866 5.33563C20.5866 5.28068 20.5661 5.22573 20.5545 5.17078C22.2126 5.1723 23.8715 5.16925 25.5296 5.17841C26.5541 5.18375 27.4458 5.8157 27.8155 6.78498C27.8928 6.98647 27.9402 7.20018 28.0015 7.40853H28Z" fill="#A8A8A8"/>
<path d="M18.9226 5.17237C15.6406 5.17237 12.3593 5.17237 9.07737 5.17237L9.0832 5.18077C9.07664 4.64804 9.06424 4.11531 9.06497 3.58335C9.06643 2.43394 9.73289 1.73712 10.8339 1.73254C11.8351 1.72873 12.8355 1.73102 13.8366 1.73254C15.0193 1.73331 16.2028 1.72262 17.3855 1.74247C18.154 1.75468 18.8533 2.40036 18.9109 3.18571C18.959 3.84742 18.9189 4.516 18.9182 5.18229L18.924 5.1739L18.9226 5.17237Z" fill="white"/>
<path d="M20.5647 5.18C20.0156 5.18 19.4658 5.18 18.9167 5.18C18.9175 4.51447 18.9576 3.84513 18.9095 3.18342C18.8526 2.39807 18.1533 1.75315 17.384 1.74017C16.2013 1.72109 15.0186 1.73178 13.8352 1.73025C12.834 1.72949 11.8336 1.7272 10.8325 1.73025C9.73144 1.73483 9.06571 2.43165 9.06352 3.58106C9.06279 4.11378 9.07519 4.64651 9.08175 5.17848C8.53269 5.17848 7.98289 5.17848 7.43383 5.17848C7.42144 4.29467 7.31644 3.40552 7.53665 2.53468C7.90487 1.08228 9.15977 0.0305632 10.5977 0.0168253C12.8654 -0.00454488 15.1338 -0.00759775 17.4015 0.0168253C19.0859 0.0359057 20.4764 1.45091 20.5676 3.20861C20.6019 3.86345 20.5676 4.52211 20.5647 5.17848V5.18Z" fill="#A8A8A8"/>
</g>
<defs>
<clipPath id="clip0_343_122">
<rect width="28" height="25" fill="white"/>
</clipPath>
</defs>
</svg>
