<svg width="29" height="27" viewBox="0 0 29 27" fill="none" xmlns="http://www.w3.org/2000/svg">
<path d="M6.55396 23.8544C6.32237 23.8101 6.0985 23.7953 5.89007 23.7288C5.01003 23.448 4.52369 22.6351 4.60088 21.6375C4.66264 20.8689 4.90195 20.1521 5.22618 19.4649C5.48092 18.9402 5.77427 18.4303 6.0599 17.9204C6.10622 17.8391 6.22201 17.7505 6.30693 17.7505C8.59195 17.7431 10.877 17.7505 13.1697 17.7505C13.1774 17.7505 13.1852 17.7579 13.2238 17.7726C13.023 18.3712 13.0308 18.9698 13.3241 19.5388C13.4631 19.8048 13.6638 20.0339 13.8413 20.2778C13.8722 20.263 13.8954 20.2556 13.9262 20.2408C13.9494 19.9231 13.9726 19.6053 13.9957 19.2875C14.0961 17.7283 14.1887 16.169 14.2813 14.6172C14.3045 14.2403 14.1501 14.0704 13.7641 14.026C13.0539 13.9521 12.3437 13.8782 11.6335 13.8043C10.7921 13.7156 10.2285 13.0062 10.3984 12.2155C10.8307 10.2129 11.263 8.20287 11.703 6.20024C11.896 5.31346 12.6757 4.7814 13.5943 4.88486C14.4126 4.97353 15.0302 5.68295 15.0533 6.53278C15.0533 6.65101 15.1228 6.79881 15.2077 6.88749C16.0183 7.75209 17.0913 8.21026 18.2029 8.59453C18.7279 8.77927 19.2528 8.86795 19.8164 8.85317C20.5497 8.831 21.2831 8.84578 22.0165 8.84578C23.0355 8.84578 23.5758 9.36306 23.5758 10.3237C23.5758 10.5602 23.5836 10.8041 23.5758 11.0405C23.5527 11.7943 22.9814 12.3411 22.194 12.3559C21.9084 12.3633 21.6228 12.3559 21.2908 12.3559C21.507 13.9078 21.8543 15.3488 23.2362 16.3464C24.1548 17.0041 24.5176 17.8835 24.3246 18.9698C24.3092 19.0437 24.3092 19.1176 24.2938 19.1915C24.5794 19.221 24.8573 19.2284 25.1275 19.2728C26.7795 19.5314 28.0687 20.8468 28.2385 22.4504C28.2694 22.746 28.1999 22.8642 27.8525 23.0415C28.0687 23.8988 27.9374 24.7042 27.3971 25.4284C26.9648 26.0196 26.3626 26.3891 25.6293 26.5517C24.3324 26.8399 22.5414 26.2339 22.0473 24.2978C22.0319 24.2978 22.0087 24.2904 22.001 24.2978C21.5378 24.7855 21.2136 24.719 20.9666 24.0983C20.9125 23.9579 20.8739 23.8175 20.8353 23.7214C20.5343 23.751 20.2487 23.8027 19.963 23.8027C17.5699 23.8101 15.1768 23.8101 12.7837 23.8027C12.5444 23.8027 12.4672 23.8544 12.4286 24.0983C12.2048 25.4506 10.9387 26.4556 9.48743 26.4408C8.03614 26.4261 6.80099 25.4137 6.58484 24.0539C6.58484 23.9874 6.5694 23.9209 6.55396 23.8544ZM18.4808 20.7138C18.4808 17.4696 18.4808 14.2551 18.4808 11.0184C16.9601 10.8484 15.6091 10.309 14.3894 9.41479C14.2736 9.89513 14.1656 10.3237 14.0652 10.7597C13.988 11.0997 14.0806 11.2548 14.428 11.3805C15.0919 11.6243 15.7635 11.8608 16.4274 12.0973C17.238 12.3855 17.5622 12.8436 17.4773 13.6639C17.3075 15.3192 17.1145 16.9671 16.9292 18.6225C16.852 19.3171 16.7748 20.0117 16.6976 20.7212C17.3075 20.7138 17.8864 20.7138 18.4808 20.7138ZM24.9808 25.7166C26.4553 25.724 27.4511 24.283 26.8644 22.9972C26.7795 22.8125 26.6637 22.7016 26.4398 22.6794C25.305 22.5686 24.232 22.7533 23.2362 23.3002C23.0355 23.411 22.9274 23.5588 22.9351 23.7879C22.9583 24.8446 23.8692 25.7166 24.9808 25.7166ZM7.52664 23.8322C7.5498 24.8299 8.56879 25.6354 9.70358 25.5541C10.6763 25.4876 11.5949 24.6008 11.4945 23.8322C10.1745 23.8322 8.8467 23.8322 7.52664 23.8322Z" fill="#A8A8A8"/>
<path d="M4.6318 6.20703C5.68167 6.20703 6.73155 6.20703 7.78914 6.20703C8.69234 6.20703 9.27132 6.76127 9.27132 7.63327C9.27132 9.19253 9.27132 10.7518 9.27132 12.3184C9.27132 13.1978 8.69234 13.7521 7.76598 13.7521C5.68167 13.7521 3.59736 13.7521 1.51305 13.7521C0.571255 13.7447 0 13.1978 0 12.2889C0 10.737 0 9.18514 0 7.63327C0 6.75388 0.578975 6.20703 1.50533 6.20703C2.54749 6.20703 3.58964 6.20703 4.6318 6.20703Z" fill="#A8A8A8"/>
<path d="M13.4168 16.8484C13.2855 16.8484 13.1929 16.8484 13.0925 16.8484C10.7766 16.8484 8.46075 16.8484 6.14485 16.8558C5.93642 16.8558 5.80519 16.7967 5.68167 16.6415C5.31885 16.1759 5.11042 15.6586 5.09498 15.0822C5.08726 14.757 5.25709 14.5723 5.59676 14.5723C8.02845 14.5723 10.4601 14.5723 12.8918 14.5723C13.2161 14.5723 13.4013 14.7201 13.4091 15.0157C13.4245 15.6069 13.4168 16.2055 13.4168 16.8484Z" fill="#A8A8A8"/>
<path d="M17.1377 2.21695C17.1377 3.44366 16.0956 4.4339 14.8141 4.4339C13.5403 4.4339 12.4982 3.42888 12.5059 2.20217C12.5136 0.990237 13.5481 0 14.8141 0C16.0956 0 17.1377 0.990237 17.1377 2.21695Z" fill="#A8A8A8"/>
</svg>
