<svg width="22" height="22" viewBox="0 0 22 22" fill="none" xmlns="http://www.w3.org/2000/svg">
<g clip-path="url(#clip0_343_132)">
<path d="M10.3555 0C10.7852 0 11.2148 0 11.6445 0C11.7004 0.0128906 11.7562 0.0300781 11.8121 0.034375C13.5309 0.154687 15.1422 0.648828 16.6117 1.54688C19.4605 3.2957 21.2137 5.81367 21.8281 9.10938C21.9055 9.52188 21.9441 9.94297 22 10.3555C22 10.7852 22 11.2148 22 11.6445C21.9871 11.7047 21.9699 11.7691 21.9656 11.8293C21.8238 13.7414 21.218 15.4902 20.1566 17.0844C19.8773 17.5012 19.5594 17.8965 19.2285 18.3348C18.4207 15.3398 16.6117 13.3203 13.7715 12.2289C16.848 10.1879 16.6375 6.26055 14.6352 4.27969C12.6242 2.28594 9.31133 2.27734 7.35625 4.29688C6.35938 5.32812 5.84805 6.56562 5.88672 8.00078C5.93398 9.80547 6.77187 11.1891 8.2457 12.2203C5.39258 13.3203 3.575 15.3398 2.78008 18.3047C1.40937 16.7277 0.537109 14.9574 0.176172 12.9336C0.0988281 12.5082 0.0601562 12.0742 0 11.6445C0 11.2148 0 10.7852 0 10.3555C0.0171875 10.2008 0.034375 10.0461 0.0515625 9.89141C0.313672 7.52383 1.22031 5.43555 2.81445 3.66523C4.50742 1.7875 6.60859 0.614453 9.10508 0.171875C9.51758 0.0988281 9.93867 0.0558594 10.3555 0Z" fill="#ADA9B5"/>
<path d="M10.3555 22C9.93009 21.9441 9.5047 21.9011 9.08361 21.8281C7.18439 21.4886 5.49572 20.6937 4.00471 19.4734C3.96174 19.439 3.92736 19.3531 3.93596 19.2972C4.32697 16.7105 5.69338 14.8113 8.06525 13.7242C10.4199 12.6457 12.7488 12.8476 14.9145 14.2527C16.7277 15.43 17.7633 17.1445 18.0598 19.2929C18.0684 19.3531 18.0254 19.4433 17.9738 19.482C16.1777 20.9343 14.1367 21.7851 11.825 21.9613C11.7606 21.9656 11.7004 21.9871 11.636 21.9957C11.2149 22 10.7852 22 10.3555 22Z" fill="#ADA9B5"/>
<path d="M10.9957 4.06058C13.1055 4.05199 14.8328 5.77504 14.8328 7.8934C14.8328 10.0032 13.127 11.7176 11.0172 11.7305C8.90314 11.7391 7.1801 10.0289 7.16721 7.90629C7.15861 5.79222 8.87307 4.06917 10.9957 4.06058Z" fill="#ADA9B5"/>
</g>
<defs>
<clipPath id="clip0_343_132">
<rect width="22" height="22" fill="white"/>
</clipPath>
</defs>
</svg>
